<?xml version="1.0" standalone="no"?>
<!DOCTYPE svg PUBLIC "-//W3C//DTD SVG 20010904//EN"
 "http://www.w3.org/TR/2001/REC-SVG-20010904/DTD/svg10.dtd">
<svg version="1.0" xmlns="http://www.w3.org/2000/svg"
 width="300.000000pt" height="144.000000pt" viewBox="0 0 300.000000 144.000000"
 preserveAspectRatio="xMidYMid meet">
<metadata>
Created by potrace 1.10, written by Peter Selinger 2001-2011
</metadata>
<g transform="translate(0.000000,144.000000) scale(0.100000,-0.100000)"
fill="#000000" stroke="none">
<path d="M599 1397 c-104 -30 -199 -112 -247 -215 -24 -50 -27 -71 -28 -162
l-1 -104 -32 -21 c-44 -28 -62 -73 -120 -290 -28 -104 -56 -203 -61 -220 -6
-16 -14 -62 -17 -100 -5 -66 -4 -72 21 -102 15 -18 44 -37 64 -43 40 -11 977
-15 1031 -4 17 4 45 20 61 37 48 50 43 104 -40 405 -39 140 -75 263 -81 274
-6 10 -25 28 -42 38 l-32 20 -1 102 c0 131 -23 194 -100 277 -70 76 -146 111
-253 117 -44 2 -95 -1 -122 -9z m201 -43 c94 -28 161 -83 204 -171 40 -79 44
-209 11 -295 -6 -15 -1 -18 28 -18 65 0 71 -13 147 -292 77 -281 88 -368 51
-387 -12 -7 -208 -11 -546 -11 -600 -1 -565 -6 -565 80 0 38 118 503 145 573
10 23 37 37 74 37 31 0 31 0 24 43 -5 23 -8 80 -8 127 1 67 6 95 24 131 75
156 246 232 411 183z"/>
<path d="M612 1315 c-81 -25 -141 -75 -179 -150 -69 -134 -21 -336 136 -570
90 -134 116 -162 137 -149 34 20 155 199 210 309 106 214 109 363 7 476 -74
82 -204 117 -311 84z m208 -58 c84 -42 68 -48 -117 -45 -97 2 -168 7 -168 12
0 17 62 47 112 56 63 11 118 3 173 -23z m82 -104 c9 -10 25 -54 36 -97 26
-102 13 -145 -44 -146 -13 0 -24 -8 -27 -20 -12 -47 -98 -51 -119 -5 -15 34
-69 35 -83 3 -21 -48 -105 -45 -121 4 -3 12 -15 18 -33 18 -15 0 -32 5 -39 12
-16 16 -16 220 0 236 9 9 70 12 213 12 180 0 204 -2 217 -17z m-381 -299 c39
-47 118 -54 154 -14 23 25 29 25 63 0 45 -33 82 -35 125 -6 52 36 60 33 40
-16 -39 -97 -183 -318 -208 -318 -30 0 -215 302 -215 350 0 24 22 26 41 4z"/>
<path d="M500 1100 c0 -27 3 -30 30 -30 27 0 30 3 30 30 0 27 -3 30 -30 30
-27 0 -30 -3 -30 -30z"/>
<path d="M600 1100 c0 -27 3 -30 30 -30 27 0 30 3 30 30 0 27 -3 30 -30 30
-27 0 -30 -3 -30 -30z"/>
<path d="M700 1100 c0 -27 3 -30 30 -30 27 0 30 3 30 30 0 27 -3 30 -30 30
-27 0 -30 -3 -30 -30z"/>
<path d="M800 1101 c0 -25 4 -30 28 -33 16 -2 27 -9 27 -18 0 -13 -28 -15
-177 -18 l-178 -2 0 -40 c0 -33 3 -40 20 -40 11 0 29 9 40 20 11 11 33 20 48
20 16 0 37 -9 47 -20 10 -11 31 -20 47 -20 17 0 41 9 55 20 14 11 38 20 53 20
15 0 35 -9 45 -20 10 -11 26 -20 37 -20 23 0 23 32 0 115 -17 59 -18 60 -54
63 -36 3 -38 2 -38 -27z"/>
<path d="M584 935 c-8 -21 2 -45 19 -45 21 0 38 25 31 44 -8 20 -43 21 -50 1z"/>
<path d="M787 943 c-13 -12 -7 -44 9 -50 23 -9 48 25 33 44 -12 14 -32 17 -42
6z"/>
<path d="M316 822 c-7 -12 -67 -234 -64 -237 10 -7 358 -120 358 -116 0 3 -11
16 -24 30 -37 39 -129 191 -162 265 -28 64 -29 66 -66 66 -20 0 -39 -4 -42 -8z
m80 -94 c14 -29 42 -79 61 -111 19 -32 33 -60 31 -62 -7 -7 -161 45 -175 59
-17 15 22 166 43 166 8 0 25 -24 40 -52z"/>
<path d="M972 768 c-35 -77 -116 -209 -178 -289 -25 -33 -45 -61 -43 -63 2 -1
21 -7 43 -14 37 -10 39 -9 65 20 14 18 76 92 138 165 l111 134 -17 52 c-17 49
-20 52 -54 55 -36 3 -37 2 -65 -60z m80 -13 c13 -28 19 -18 -91 -147 -64 -77
-93 -106 -78 -80 30 50 116 203 126 225 18 33 28 34 43 2z"/>
<path d="M1006 534 c-61 -73 -122 -147 -136 -162 l-26 -29 -301 101 c-166 55
-304 98 -307 96 -2 -3 -6 -18 -8 -33 -3 -27 -1 -29 120 -68 72 -24 122 -45
122 -53 0 -7 -30 -48 -66 -90 -36 -43 -64 -79 -62 -81 2 -2 23 -1 46 2 39 5
49 13 104 80 44 53 66 72 77 67 9 -3 106 -36 216 -73 188 -64 207 -68 313 -73
61 -3 112 -3 112 1 0 3 -63 26 -140 50 -87 28 -140 50 -140 58 0 7 47 69 105
138 104 122 105 124 99 164 -4 23 -9 41 -13 40 -3 0 -55 -61 -115 -135z"/>
<path d="M1071 443 c-44 -53 -81 -100 -81 -103 1 -6 233 -81 237 -76 3 3 -67
268 -72 274 -1 2 -39 -41 -84 -95z m94 -80 c6 -28 4 -33 -13 -33 -21 0 -92 27
-92 35 0 3 17 24 37 46 l38 41 11 -28 c6 -16 15 -44 19 -61z"/>
<path d="M206 428 c-24 -72 -46 -172 -41 -188 5 -17 15 -20 65 -20 l59 0 58
70 c32 39 59 74 61 78 1 4 -37 20 -85 35 -49 15 -94 30 -100 33 -7 3 -15 0
-17 -8z m117 -70 c20 -10 18 -16 -32 -70 -34 -38 -81 -39 -81 -3 0 14 7 42 15
61 14 33 17 35 47 29 18 -4 41 -12 51 -17z"/>
<path d="M523 270 c-24 -26 -43 -50 -43 -52 0 -1 90 -3 199 -3 110 0 198 1
197 2 -1 1 -66 23 -145 48 -79 26 -148 48 -155 50 -6 2 -30 -18 -53 -45z"/>
<path d="M1416 909 c-17 -13 -26 -30 -26 -49 0 -52 -8 -60 -60 -60 -33 0 -52
-5 -63 -18 -40 -44 0 -102 71 -102 32 0 44 -4 48 -17 10 -34 21 -48 47 -63 24
-13 28 -13 57 8 l31 23 30 -22 c28 -20 35 -21 65 -10 24 9 39 9 53 2 30 -16
123 -13 148 4 20 14 25 14 58 -2 28 -13 42 -15 63 -7 15 6 37 7 47 3 11 -4 46
-8 78 -8 49 -1 62 3 82 24 14 13 25 33 25 45 0 17 6 20 51 20 44 0 54 -4 76
-30 52 -62 126 -77 198 -40 38 19 38 19 70 0 42 -26 89 -25 134 2 19 12 47 21
62 20 36 -4 128 34 157 65 47 51 14 102 -94 143 -53 19 -58 20 -81 5 -18 -12
-28 -14 -38 -5 -28 23 -76 30 -118 15 -23 -8 -42 -13 -42 -12 -1 1 -11 16 -23
33 -61 89 -203 64 -248 -43 -13 -31 -18 -33 -62 -33 -39 0 -53 5 -72 25 -32
34 -79 46 -130 33 -39 -10 -43 -9 -74 21 -39 38 -55 39 -94 6 -17 -14 -39 -25
-51 -25 -12 0 -30 -6 -41 -12 -16 -10 -24 -10 -40 0 -11 6 -30 12 -43 12 -13
0 -32 10 -43 21 -45 51 -159 66 -208 28z m152 -30 c52 -18 63 -91 18 -128 -15
-13 -14 -19 14 -67 l30 -54 -30 0 c-26 0 -33 7 -55 50 -18 35 -31 50 -45 50
-17 0 -20 -7 -20 -50 0 -48 -1 -50 -27 -50 l-28 0 0 130 0 130 56 0 c31 0 70
-5 87 -11z m917 -14 c34 -33 34 -64 0 -57 -14 2 -30 13 -36 23 -12 23 -52 25
-73 3 -22 -22 -22 -121 1 -146 29 -32 83 -20 83 18 0 19 -5 24 -25 24 -18 0
-25 5 -25 20 0 17 7 20 50 20 l50 0 0 -54 c0 -66 -12 -78 -85 -84 -50 -4 -57
-2 -84 25 -53 53 -53 152 -1 205 39 38 109 40 145 3z m-573 -20 c-3 -20 0 -25
17 -25 12 0 21 -6 21 -15 0 -8 -9 -15 -20 -15 -18 0 -20 -7 -20 -56 0 -47 3
-57 20 -61 11 -3 20 -14 20 -24 0 -14 -7 -19 -29 -19 -47 0 -61 22 -61 96 0
50 -3 64 -15 64 -8 0 -15 7 -15 15 0 8 7 15 15 15 9 0 15 9 15 25 0 21 5 25
29 25 25 0 28 -3 23 -25z m-182 -170 c24 0 25 3 28 73 3 71 3 72 30 72 l27 0
0 -95 c1 -92 0 -95 -22 -95 -13 0 -23 5 -23 10 0 7 -6 7 -19 0 -32 -17 -69
-12 -85 12 -11 15 -16 45 -16 95 0 67 2 72 23 75 21 3 22 -1 27 -72 5 -72 6
-75 30 -75z m380 129 c10 -9 17 -42 20 -94 l5 -80 -27 0 c-16 0 -28 5 -28 12
0 9 -3 9 -12 0 -16 -16 -60 -15 -82 1 -22 16 -24 63 -4 84 9 8 34 17 57 20 31
4 41 10 37 20 -4 8 -6 17 -6 19 0 9 -29 3 -59 -12 -36 -18 -51 -12 -35 14 27
42 99 51 134 16z m588 -10 c26 -29 29 -81 7 -123 -16 -32 -33 -41 -75 -41 -91
0 -121 145 -40 188 34 17 80 7 108 -24z m210 -51 c3 -18 -17 -29 -145 -80 -8
-3 -13 4 -13 20 0 18 7 27 25 31 13 3 37 11 52 17 l28 11 -50 17 c-41 14 -51
22 -53 44 l-3 26 78 -33 c55 -24 79 -39 81 -53z m-1528 -3 c0 -17 -7 -20 -50
-20 -43 0 -50 3 -50 20 0 17 7 20 50 20 43 0 50 -3 50 -20z m890 0 c0 -18 -7
-20 -55 -20 -48 0 -55 2 -55 20 0 18 7 20 55 20 48 0 55 -2 55 -20z"/>
<path d="M1480 809 l0 -40 38 3 c30 2 38 7 40 26 5 32 -15 52 -49 52 -27 0
-29 -3 -29 -41z"/>
<path d="M2027 713 c-4 -3 -7 -15 -7 -25 0 -30 54 -21 58 10 3 17 -1 22 -21
22 -13 0 -27 -3 -30 -7z"/>
<path d="M2613 783 c-18 -7 -27 -67 -14 -92 13 -23 40 -28 59 -9 17 17 15 74
-4 92 -16 17 -21 18 -41 9z"/>
</g>
</svg>
